<?xml version="1.0" standalone="no"?><svg xmlns="http://www.w3.org/2000/svg" viewBox="0 0 1440 320"><path fill="#4E9757" fill-opacity="1" d="M0,256L24,245.3C48,235,96,213,144,213.3C192,213,240,235,288,234.7C336,235,384,213,432,192C480,171,528,149,576,133.3C624,117,672,107,720,128C768,149,816,203,864,229.3C912,256,960,256,1008,240C1056,224,1104,192,1152,181.3C1200,171,1248,181,1296,197.3C1344,213,1392,235,1416,245.3L1440,256L1440,320L1416,320C1392,320,1344,320,1296,320C1248,320,1200,320,1152,320C1104,320,1056,320,1008,320C960,320,912,320,864,320C816,320,768,320,720,320C672,320,624,320,576,320C528,320,480,320,432,320C384,320,336,320,288,320C240,320,192,320,144,320C96,320,48,320,24,320L0,320Z"></path></svg>